# xmcd
#
# Track frame offsets: 
#        150
#        16312
#        30427
#        43940
#        59689
#        67079
#        77764
#        89327
#        106548
#        118668
#        138685
#        153270
#        167484
#        181570
#        195155
#        208493
#        221425
#        235507
#
# Disc length: 3316 seconds
#
# Revision: 0
# Processed by: cddbd v1.5.2PL0 Copyright (c) Steve Scherf et al.
# Submitted via: ExactAudioCopy v0.95b3
#
DISCID=ec0cf212
DTITLE=Fats Navarro  - Volume 1 Complete Edition
DYEAR=1900
DGENRE=
TTITLE0=Wednesday Night Hop
TTITLE1=Seven Come Eleven
TTITLE2=Fare Thee Honey, Fare Thee Well
TTITLE3=Speak Low
TTITLE4=One O'Clock Jump
TTITLE5=Peeping Through the Keyhole
TTITLE6=Blowing The Blues Away
TTITLE7=Air-Mail Special
TTITLE8=Opus X
TTITLE9=Love Me Or Leave Me
TTITLE10=Long Long Journey
TTITLE11=Long Long Journey
TTITLE12=Doggin' Man Blues
TTITLE13=Tell Me Pretty Baby
TTITLE14=Epistrophy
TTITLE15=52nd Street Theme
TTITLE16=Oop Bop Sh-Bam
TTITLE17=Rue Chaptal (Royal Roost)
EXTD=
EXTT0=
EXTT1=
EXTT2=
EXTT3=
EXTT4=
EXTT5=
EXTT6=
EXTT7=
EXTT8=
EXTT9=
EXTT10=
EXTT11=
EXTT12=
EXTT13=
EXTT14=
EXTT15=
EXTT16=
EXTT17=
PLAYORDER=
